{
  "source": "C:\\Users\\Peter\\Desktop\\stuff\\MIUN\\quantitative_research\\video_compression\\videos\\HEVC_CLASS_B\\ParkScene_1920x1080_24.y4m",
  "output": "C:\\Users\\Peter\\Desktop\\stuff\\MIUN\\quantitative_research\\video_compression\\compressed_videos\\HEVC_CLASS_B\\vp9\\4\\ParkScene_1920x1080_24_vp9.webm",
  "codec": "vp9",
  "ok": "Input #0, yuv4mpegpipe, from 'C:\\Users\\Peter\\Desktop\\stuff\\MIUN\\quantitative_research\\video_compression\\videos\\HEVC_CLASS_B\\ParkScene_1920x1080_24.y4m':\n  Duration: 00:00:10.00, start: 0.000000, bitrate: 597198 kb/s\n  Stream #0:0: Video: rawvideo (I420 / 0x30323449), yuv420p(progressive), 1920x1080, 24 fps, 24 tbr, 24 tbn\n[out#0/webm @ 000001c86fc89b80] Codec AVOption b:a (set bitrate (in bits/s)) has not been used for any stream. The most likely reason is either wrong type (e.g. a video option with no video streams) or that it is a private option of some decoder which was not actually used for any stream.\nStream mapping:\n  Stream #0:0 -> #0:0 (rawvideo (native) -> vp9 (libvpx-vp9))\nPress [q] to stop, [?] for help\n[libvpx-vp9 @ 000001c86fc8cf40] v1.15.2-100-g40561f514\nOutput #0, webm, to 'C:\\Users\\Peter\\Desktop\\stuff\\MIUN\\quantitative_research\\video_compression\\compressed_videos\\HEVC_CLASS_B\\vp9\\4\\ParkScene_1920x1080_24_vp9.webm':\n  Metadata:\n    encoder         : Lavf62.3.100\n  Stream #0:0: Video: vp9, yuv420p(tv, progressive), 1920x1080, q=2-31, 4000 kb/s, 24 fps, 1k tbn\n    Metadata:\n      encoder         : Lavc62.11.100 libvpx-vp9\n    Side data:\n      cpb: bitrate max/min/avg: 0/0/0 buffer size: 4000000 vbv_delay: N/A\nframe=    0 fps=0.0 q=0.0 size=       0KiB time=N/A bitrate=N/A speed=N/A elapsed=0:00:00.50    \nframe=    6 fps=5.8 q=38.0 size=       0KiB time=00:00:00.25 bitrate=  15.4kbits/s speed=0.241x elapsed=0:00:01.03    \nframe=   10 fps=6.4 q=37.0 size=       0KiB time=00:00:00.41 bitrate=   9.3kbits/s speed=0.266x elapsed=0:00:01.56    \nframe=   15 fps=7.1 q=36.0 size=       0KiB time=00:00:00.62 bitrate=   6.2kbits/s speed=0.297x elapsed=0:00:02.10    \nframe=   19 fps=7.2 q=37.0 size=       0KiB time=00:00:00.79 bitrate=   4.9kbits/s speed=0.301x elapsed=0:00:02.63    \nframe=   22 fps=6.9 q=37.0 size=       0KiB time=00:00:00.91 bitrate=   4.2kbits/s speed=0.289x elapsed=0:00:03.17    \nframe=   26 fps=7.0 q=36.0 size=       0KiB time=00:00:01.08 bitrate=   3.6kbits/s speed=0.293x elapsed=0:00:03.69    \nframe=   30 fps=7.1 q=37.0 size=       0KiB time=00:00:01.25 bitrate=   3.1kbits/s speed=0.296x elapsed=0:00:04.22    \nframe=   33 fps=6.9 q=35.0 size=       0KiB time=00:00:01.37 bitrate=   2.8kbits/s speed=0.289x elapsed=0:00:04.76    \nframe=   37 fps=7.0 q=37.0 size=       0KiB time=00:00:01.54 bitrate=   2.5kbits/s speed=0.292x elapsed=0:00:05.27    \nframe=   40 fps=6.9 q=38.0 size=       0KiB time=00:00:01.66 bitrate=   2.3kbits/s speed=0.287x elapsed=0:00:05.80    \nframe=   44 fps=6.9 q=36.0 size=       0KiB time=00:00:01.83 bitrate=   2.1kbits/s speed=0.289x elapsed=0:00:06.35    \nframe=   48 fps=7.0 q=38.0 size=       0KiB time=00:00:02.00 bitrate=   1.9kbits/s speed=0.29x elapsed=0:00:06.88    \nframe=   50 fps=6.7 q=39.0 size=       0KiB time=00:00:02.08 bitrate=   1.9kbits/s speed=0.28x elapsed=0:00:07.43    \nframe=   54 fps=6.8 q=38.0 size=       0KiB time=00:00:02.25 bitrate=   1.7kbits/s speed=0.283x elapsed=0:00:07.95    \nframe=   58 fps=6.8 q=39.0 size=       0KiB time=00:00:02.41 bitrate=   1.6kbits/s speed=0.285x elapsed=0:00:08.47    \nframe=   60 fps=6.7 q=40.0 size=       0KiB time=00:00:02.50 bitrate=   1.5kbits/s speed=0.278x elapsed=0:00:08.99    \nframe=   64 fps=6.7 q=38.0 size=       0KiB time=00:00:02.66 bitrate=   1.4kbits/s speed=0.281x elapsed=0:00:09.50    \nframe=   68 fps=6.8 q=39.0 size=       0KiB time=00:00:02.83 bitrate=   1.4kbits/s speed=0.283x elapsed=0:00:10.02    \nframe=   70 fps=6.6 q=39.0 size=       0KiB time=00:00:02.91 bitrate=   1.3kbits/s speed=0.277x elapsed=0:00:10.54    \nframe=   74 fps=6.7 q=37.0 size=       0KiB time=00:00:03.08 bitrate=   1.3kbits/s speed=0.279x elapsed=0:00:11.06    \nframe=   78 fps=6.7 q=38.0 size=       0KiB time=00:00:03.25 bitrate=   1.2kbits/s speed=0.281x elapsed=0:00:11.57    \nframe=   81 fps=6.7 q=22.0 size=       0KiB time=00:00:03.37 bitrate=   1.1kbits/s speed=0.279x elapsed=0:00:12.10    \nframe=   85 fps=6.7 q=37.0 size=       0KiB time=00:00:03.54 bitrate=   1.1kbits/s speed=0.281x elapsed=0:00:12.62    \nframe=   89 fps=6.8 q=39.0 size=       0KiB time=00:00:03.70 bitrate=   1.0kbits/s speed=0.282x elapsed=0:00:13.15    \nframe=   92 fps=6.7 q=39.0 size=       0KiB time=00:00:03.83 bitrate=   1.0kbits/s speed=0.28x elapsed=0:00:13.67    \nframe=   97 fps=6.8 q=38.0 size=       0KiB time=00:00:04.04 bitrate=   1.0kbits/s speed=0.285x elapsed=0:00:14.19    \nframe=  100 fps=6.8 q=38.0 size=       0KiB time=00:00:04.16 bitrate=   0.9kbits/s speed=0.283x elapsed=0:00:14.71    \nframe=  104 fps=6.8 q=36.0 size=       0KiB time=00:00:04.33 bitrate=   0.9kbits/s speed=0.284x elapsed=0:00:15.23    \nframe=  109 fps=6.9 q=38.0 size=       0KiB time=00:00:04.54 bitrate=   0.8kbits/s speed=0.288x elapsed=0:00:15.75    \nframe=  112 fps=6.9 q=38.0 size=       0KiB time=00:00:04.66 bitrate=   0.8kbits/s speed=0.286x elapsed=0:00:16.29    \nframe=  116 fps=6.9 q=36.0 size=       0KiB time=00:00:04.83 bitrate=   0.8kbits/s speed=0.287x elapsed=0:00:16.81    \nframe=  120 fps=6.9 q=37.0 size=       0KiB time=00:00:05.00 bitrate=   0.8kbits/s speed=0.288x elapsed=0:00:17.34    \nframe=  124 fps=6.9 q=36.0 size=    2560KiB time=00:00:05.16 bitrate=4059.0kbits/s speed=0.289x elapsed=0:00:17.86    \nframe=  128 fps=7.0 q=37.0 size=    2560KiB time=00:00:05.33 bitrate=3932.2kbits/s speed=0.29x elapsed=0:00:18.39    \nframe=  132 fps=7.0 q=34.0 size=    2816KiB time=00:00:05.50 bitrate=4194.3kbits/s speed=0.291x elapsed=0:00:18.90    \nframe=  137 fps=7.1 q=36.0 size=    2816KiB time=00:00:05.66 bitrate=4070.9kbits/s speed=0.292x elapsed=0:00:19.41    \nframe=  140 fps=7.0 q=36.0 size=    2816KiB time=00:00:05.83 bitrate=3954.6kbits/s speed=0.292x elapsed=0:00:19.95    \nframe=  144 fps=7.0 q=35.0 size=    2816KiB time=00:00:06.00 bitrate=3844.8kbits/s speed=0.293x elapsed=0:00:20.48    \nframe=  148 fps=7.0 q=36.0 size=    2816KiB time=00:00:06.16 bitrate=3740.9kbits/s speed=0.293x elapsed=0:00:21.01    \nframe=  152 fps=7.0 q=34.0 size=    2816KiB time=00:00:06.33 bitrate=3642.4kbits/s speed=0.293x elapsed=0:00:21.59    \nframe=  156 fps=7.0 q=35.0 size=    2816KiB time=00:00:06.50 bitrate=3549.0kbits/s speed=0.294x elapsed=0:00:22.12    \nframe=  158 fps=7.0 q=36.0 size=    2816KiB time=00:00:06.58 bitrate=3504.1kbits/s speed=0.291x elapsed=0:00:22.64    \nframe=  163 fps=7.0 q=34.0 size=    2816KiB time=00:00:06.79 bitrate=3396.6kbits/s speed=0.293x elapsed=0:00:23.16    \nframe=  167 fps=7.0 q=35.0 size=    2816KiB time=00:00:06.95 bitrate=3315.3kbits/s speed=0.294x elapsed=0:00:23.69    \nframe=  169 fps=7.0 q=19.0 size=    2816KiB time=00:00:07.04 bitrate=3276.0kbits/s speed=0.291x elapsed=0:00:24.21    \nframe=  173 fps=7.0 q=35.0 size=    2816KiB time=00:00:07.20 bitrate=3200.3kbits/s speed=0.291x elapsed=0:00:24.72    \nframe=  177 fps=7.0 q=36.0 size=    2816KiB time=00:00:07.37 bitrate=3128.0kbits/s speed=0.292x elapsed=0:00:25.25    \nframe=  180 fps=7.0 q=37.0 size=    2816KiB time=00:00:07.50 bitrate=3075.8kbits/s speed=0.291x elapsed=0:00:25.77    \nframe=  184 fps=7.0 q=36.0 size=    2816KiB time=00:00:07.66 bitrate=3009.0kbits/s speed=0.291x elapsed=0:00:26.32    \nframe=  188 fps=7.0 q=37.0 size=    2816KiB time=00:00:07.83 bitrate=2944.9kbits/s speed=0.292x elapsed=0:00:26.85    \nframe=  191 fps=7.0 q=34.0 size=    2816KiB time=00:00:07.95 bitrate=2898.7kbits/s speed=0.291x elapsed=0:00:27.38    \nframe=  195 fps=7.0 q=36.0 size=    2816KiB time=00:00:08.12 bitrate=2839.2kbits/s speed=0.291x elapsed=0:00:27.90    \nframe=  198 fps=7.0 q=37.0 size=    2816KiB time=00:00:08.25 bitrate=2796.2kbits/s speed=0.29x elapsed=0:00:28.42    \nframe=  202 fps=7.0 q=35.0 size=    2816KiB time=00:00:08.41 bitrate=2740.8kbits/s speed=0.291x elapsed=0:00:28.94    \nframe=  206 fps=7.0 q=36.0 size=    2816KiB time=00:00:08.58 bitrate=2687.6kbits/s speed=0.291x elapsed=0:00:29.50    \nframe=  208 fps=6.9 q=37.0 size=    2816KiB time=00:00:08.66 bitrate=2661.8kbits/s speed=0.289x elapsed=0:00:30.03    \nframe=  212 fps=6.9 q=37.0 size=    2816KiB time=00:00:08.83 bitrate=2611.5kbits/s speed=0.289x elapsed=0:00:30.54    \nframe=  216 fps=7.0 q=37.0 size=    2816KiB time=00:00:09.00 bitrate=2563.2kbits/s speed=0.29x elapsed=0:00:31.07    \nframe=  216 fps=6.8 q=37.0 size=    2816KiB time=00:00:09.00 bitrate=2563.2kbits/s speed=0.285x elapsed=0:00:31.61    \nframe=  216 fps=6.7 q=37.0 size=    2816KiB time=00:00:09.00 bitrate=2563.2kbits/s speed=0.28x elapsed=0:00:32.12    \nframe=  216 fps=6.6 q=37.0 size=    2816KiB time=00:00:09.00 bitrate=2563.2kbits/s speed=0.276x elapsed=0:00:32.64    \nframe=  216 fps=6.5 q=37.0 size=    2816KiB time=00:00:09.00 bitrate=2563.2kbits/s speed=0.271x elapsed=0:00:33.16    \nframe=  216 fps=6.4 q=37.0 size=    2816KiB time=00:00:09.00 bitrate=2563.2kbits/s speed=0.267x elapsed=0:00:33.67    \nframe=  216 fps=6.3 q=37.0 size=    2816KiB time=00:00:09.00 bitrate=2563.2kbits/s speed=0.263x elapsed=0:00:34.19    \n[out#0/webm @ 000001c86fc89b80] video:5305KiB audio:0KiB subtitle:0KiB other streams:0KiB global headers:0KiB muxing overhead: 0.041659%\nframe=  240 fps=6.9 q=31.0 Lsize=    5307KiB time=00:00:10.00 bitrate=4347.6kbits/s speed=0.289x elapsed=0:00:34.58    \n",
  "seconds": 34.73669791221619,
  "probe_out": {}
}